<?xml version="1.0" encoding="UTF-8"?>
<svg width="24px" height="24px" viewBox="0 0 24 24" version="1.1" xmlns="http://www.w3.org/2000/svg" xmlns:xlink="http://www.w3.org/1999/xlink">
    <!-- Generator: Sketch 64 (93537) - https://sketch.com -->
    <title>UI/Icons/Close</title>
    <desc>Created with Sketch.</desc>
    <defs>
        <path d="M12.2027642,9.99992911 L19.6804878,2.52188033 C19.8861789,2.31602667 19.9996748,2.04139253 20,1.748547 C20,1.45553887 19.8865041,1.18057952 19.6804878,0.975051063 L19.0252033,0.319929112 C18.819187,0.113587648 18.5445528,0.000579518053 18.2513821,0.000579518053 C17.9586992,0.000579518053 17.684065,0.113587648 17.4780488,0.319929112 L10.0003252,7.79749009 L2.52227642,0.319929112 C2.31658537,0.113587648 2.04178862,0.000579518053 1.74878049,0.000579518053 C1.45609756,0.000579518053 1.18130081,0.113587648 0.975609756,0.319929112 L0.32,0.975051063 C-0.106666667,1.40171773 -0.106666667,2.09570147 0.32,2.52188033 L7.79788618,9.99992911 L0.32,17.4776527 C0.114146341,17.6838316 0.00081300813,17.9584657 0.00081300813,18.2513112 C0.00081300813,18.5441568 0.114146341,18.8187909 0.32,19.0248072 L0.975447154,19.6799291 C1.18113821,19.886108 1.45609756,19.9992787 1.74861789,19.9992787 C2.04162602,19.9992787 2.31642276,19.886108 2.52211382,19.6799291 L10.0001626,12.2022055 L17.4778862,19.6799291 C17.6839024,19.886108 17.9585366,19.9992787 18.2512195,19.9992787 L18.2515447,19.9992787 C18.5443902,19.9992787 18.8190244,19.886108 19.0250407,19.6799291 L19.6803252,19.0248072 C19.8860163,18.8189535 19.9995122,18.5441568 19.9995122,18.2513112 C19.9995122,17.9584657 19.8860163,17.6838316 19.6803252,17.4778153 L12.2027642,9.99992911 Z" id="path-1"></path>
    </defs>
    <g id="UI/Icons/Close" stroke="none" stroke-width="1" fill="none" fill-rule="evenodd">
        <g id="Colours/White" transform="translate(2.000000, 2.000000)">
            <g transform="translate(0.000000, 0.000071)">
                <mask id="mask-2" fill="white">
                    <use xlink:href="#path-1"></use>
                </mask>
                <use id="Mask" fill="#FFFFFF" fill-rule="nonzero" xlink:href="#path-1"></use>
            </g>
        </g>
    </g>
</svg>