<?xml version="1.0" encoding="utf-8"?>
<!-- Generator: Adobe Illustrator 22.0.1, SVG Export Plug-In . SVG Version: 6.00 Build 0)  -->
<svg version="1.1" id="Layer_1" xmlns="http://www.w3.org/2000/svg" xmlns:xlink="http://www.w3.org/1999/xlink" x="0px" y="0px"
	 viewBox="0 0 24 24" style="enable-background:new 0 0 24 24;" xml:space="preserve">
<style type="text/css">
	.st0{filter:url(#Adobe_OpacityMaskFilter);}
	.st1{fill:#FFFFFF;}
	.st2{mask:url(#mask-2_1_);}
</style>
<title>UI/Icons/Facebook</title>
<desc>Created with Sketch.</desc>
<g id="UI_x2F_Icons_x2F_Facebook">
	<g id="Colours_x2F_White" transform="translate(5.000000, 0.000000)">
		<g id="facebook">
			<path id="path-1_1_" d="M13.2,0H9.6c-3.3,0-6,2.7-6,6v3.6H0v4.8h3.6V24h4.8v-9.6H12l1.2-4.8H8.4V6c0-0.7,0.5-1.2,1.2-1.2h3.6V0z"
				/>
		</g>
		<defs>
			<filter id="Adobe_OpacityMaskFilter" filterUnits="userSpaceOnUse" x="-5" y="0" width="24" height="24">
				<feColorMatrix  type="matrix" values="1 0 0 0 0  0 1 0 0 0  0 0 1 0 0  0 0 0 1 0"/>
			</filter>
		</defs>
		<mask maskUnits="userSpaceOnUse" x="-5" y="0" width="24" height="24" id="mask-2_1_">
			<g class="st0">
				<path id="path-1_2_" class="st1" d="M13.2,0H9.6c-3.3,0-6,2.7-6,6v3.6H0v4.8h3.6V24h4.8v-9.6H12l1.2-4.8H8.4V6
					c0-0.7,0.5-1.2,1.2-1.2h3.6V0z"/>
			</g>
		</mask>
		<g id="Rectangle" class="st2">
			<g transform="translate(-5.000000, 0.000000)">
				<rect width="24" height="24"/>
			</g>
		</g>
	</g>
</g>
</svg>
