<?xml version="1.0" encoding="UTF-8"?>
<svg width="24px" height="24px" viewBox="0 0 24 24" version="1.1" xmlns="http://www.w3.org/2000/svg" xmlns:xlink="http://www.w3.org/1999/xlink">
    <!-- Generator: Sketch 64 (93537) - https://sketch.com -->
    <title>UI/Icons/Home</title>
    <desc>Created with Sketch.</desc>
    <defs>
        <path d="M23.6189575,10.8484955 L12.5189209,0.208602914 C12.229065,-0.0695343047 11.770935,-0.0695343047 11.4810791,0.208602914 L0.370056141,10.8594818 C0.134948719,11.0945892 0,11.4185028 0,11.7495575 C0,12.4385834 0.561035156,12.9996185 1.25006105,12.9996185 L3,12.9996185 L3,22.4994964 C3,23.3274994 3.67199709,23.9994964 4.5,23.9994964 L8.75006105,23.9994964 C9.1640625,23.9994964 9.50006105,23.6634979 9.50006105,23.2494964 L9.50006105,16.7496185 C9.50006105,16.6124726 9.6119385,16.4994964 9.75,16.4994964 L14.25,16.4994964 C14.3869629,16.4994964 14.499939,16.6124726 14.499939,16.7496185 L14.499939,23.2494964 C14.499939,23.6634979 14.8359375,23.9994964 15.249939,23.9994964 L19.5,23.9994964 C20.3280029,23.9994964 21,23.3274994 21,22.4994964 L21,12.9996185 L22.749939,12.9996185 C23.4389648,12.9996185 24,12.4385834 24,11.7495575 C24,11.4185028 23.8650513,11.0945892 23.6189575,10.8484955 Z" id="path-1"></path>
    </defs>
    <g id="UI/Icons/Home" stroke="none" stroke-width="1" fill="none" fill-rule="evenodd">
        <g id="Colours/White" transform="translate(0.000000, -0.000000)">
            <mask id="mask-2" fill="white">
                <use xlink:href="#path-1"></use>
            </mask>
            <use id="Mask" fill="#000000" fill-rule="nonzero" xlink:href="#path-1"></use>
            <g mask="url(#mask-2)" fill="#FFFFFF" id="Rectangle">
                <rect x="0" y="0" width="24" height="24"></rect>
            </g>
        </g>
    </g>
</svg>