<?xml version="1.0" encoding="utf-8"?>
<!-- Generator: Adobe Illustrator 22.0.1, SVG Export Plug-In . SVG Version: 6.00 Build 0)  -->
<svg version="1.1" id="Layer_1" xmlns="http://www.w3.org/2000/svg" xmlns:xlink="http://www.w3.org/1999/xlink" x="0px" y="0px"
	 viewBox="0 0 24 24" style="enable-background:new 0 0 24 24;" xml:space="preserve">
<style type="text/css">
	.st0{filter:url(#Adobe_OpacityMaskFilter);}
	.st1{fill:#FFFFFF;}
	.st2{mask:url(#mask-2_1_);}
</style>
<title>UI/Icons/Insta</title>
<desc>Created with Sketch.</desc>
<g id="UI_x2F_Icons_x2F_Insta">
	<g id="Colours_x2F_White">
		<g id="instagram">
			<path id="path-1_1_" d="M16.1,0c4,0,7.3,3.3,7.3,7.3l0,0v8.8c0,4-3.3,7.3-7.3,7.3l0,0H7.3c-4,0-7.3-3.3-7.3-7.3l0,0V7.3
				C0,3.3,3.3,0,7.3,0l0,0H16.1z M16.1,2.2H7.3c-2.8,0-5.1,2.3-5.1,5.1l0,0v8.8c0,2.8,2.3,5.1,5.1,5.1l0,0h8.8
				c2.8,0,5.1-2.3,5.1-5.1l0,0V7.3C21.2,4.5,18.9,2.2,16.1,2.2L16.1,2.2z M11.7,5.8c3.2,0,5.8,2.6,5.8,5.8s-2.6,5.8-5.8,5.8
				s-5.8-2.6-5.8-5.8S8.5,5.8,11.7,5.8z M11.7,8C9.7,8,8,9.7,8,11.7c0,2,1.6,3.6,3.6,3.6s3.6-1.6,3.6-3.6C15.3,9.7,13.7,8,11.7,8z
				 M18,4.6c0.4,0,0.8,0.3,0.8,0.8S18.4,6.2,18,6.2s-0.8-0.3-0.8-0.8S17.5,4.6,18,4.6z"/>
		</g>
		<defs>
			<filter id="Adobe_OpacityMaskFilter" filterUnits="userSpaceOnUse" x="0" y="0" width="24" height="24">
				<feColorMatrix  type="matrix" values="1 0 0 0 0  0 1 0 0 0  0 0 1 0 0  0 0 0 1 0"/>
			</filter>
		</defs>
		<mask maskUnits="userSpaceOnUse" x="0" y="0" width="24" height="24" id="mask-2_1_">
			<g class="st0">
				<path id="path-1_2_" class="st1" d="M16.1,0c4,0,7.3,3.3,7.3,7.3l0,0v8.8c0,4-3.3,7.3-7.3,7.3l0,0H7.3c-4,0-7.3-3.3-7.3-7.3l0,0
					V7.3C0,3.3,3.3,0,7.3,0l0,0H16.1z M16.1,2.2H7.3c-2.8,0-5.1,2.3-5.1,5.1l0,0v8.8c0,2.8,2.3,5.1,5.1,5.1l0,0h8.8
					c2.8,0,5.1-2.3,5.1-5.1l0,0V7.3C21.2,4.5,18.9,2.2,16.1,2.2L16.1,2.2z M11.7,5.8c3.2,0,5.8,2.6,5.8,5.8s-2.6,5.8-5.8,5.8
					s-5.8-2.6-5.8-5.8S8.5,5.8,11.7,5.8z M11.7,8C9.7,8,8,9.7,8,11.7c0,2,1.6,3.6,3.6,3.6s3.6-1.6,3.6-3.6C15.3,9.7,13.7,8,11.7,8z
					 M18,4.6c0.4,0,0.8,0.3,0.8,0.8S18.4,6.2,18,6.2s-0.8-0.3-0.8-0.8S17.5,4.6,18,4.6z"/>
			</g>
		</mask>
		<g id="Rectangle" class="st2">
			<rect width="24" height="24"/>
		</g>
	</g>
</g>
</svg>
