<?xml version="1.0" encoding="UTF-8"?>
<svg width="24px" height="24px" viewBox="0 0 24 24" version="1.1" xmlns="http://www.w3.org/2000/svg" xmlns:xlink="http://www.w3.org/1999/xlink">
    <!-- Generator: Sketch 64 (93537) - https://sketch.com -->
    <title>UI/Icons/Mail</title>
    <desc>Created with Sketch.</desc>
    <g id="UI/Icons/Mail" stroke="none" stroke-width="1" fill="none" fill-rule="evenodd">
        <g id="Colours/White" transform="translate(0.000000, 2.000000)" fill="#FFFFFF" fill-rule="nonzero">
            <path d="M23.1767813,5.09457599 C23.32425,4.99427387 23.53275,4.9713626 23.7099844,5.0370366 C23.8867031,5.10196431 24,5.24305147 24,5.39813167 L24,5.39813167 L24,15.4078197 C24,16.2859109 23.1030469,16.9999291 22.0000313,16.9999291 L22.0000313,16.9999291 L2.00001563,16.9999291 C0.896953125,16.9999291 2.27373675e-13,16.2859109 2.27373675e-13,15.4078197 L2.27373675e-13,15.4078197 L2.27373675e-13,5.39813167 C2.27373675e-13,5.24305147 0.113296875,5.10233746 0.290015625,5.03699929 C0.465796875,4.9721089 0.674765625,4.99423656 0.82321875,5.09453867 C3.805125,7.10643932 9.0405,10.6494024 10.6039688,11.770786 C11.4291563,12.363158 12.5717344,12.363158 13.395,11.7715696 C14.8618125,10.7194049 19.5239063,7.55966455 23.1767813,5.09457599 Z M22.2775007,1.99992911 C22.9078352,1.99992911 23.4959674,2.20414294 23.8904323,2.56030686 C24.0610716,2.71443886 24.0289382,2.93603984 23.8181683,3.06211376 C20.4327946,5.09099007 14.4926007,8.66074324 12.74521,9.77478251 C12.5113639,9.92427795 12.2604152,9.99992911 11.9999759,9.99992911 C11.7390067,9.99992911 11.4876244,9.923562 11.2532483,9.77335063 C9.50735108,8.66040231 3.56715727,5.09099007 0.181831652,3.06211376 C-0.0289382289,2.93603984 -0.0610716029,2.71443886 0.109567693,2.56034095 C0.503984383,2.20414294 1.09216484,1.99992911 1.72245109,1.99992911 L1.72245109,1.99992911 Z" id="Combined-Shape"></path>
        </g>
    </g>
</svg>