<?xml version="1.0" encoding="UTF-8"?>
<svg width="24px" height="24px" viewBox="0 0 24 24" version="1.1" xmlns="http://www.w3.org/2000/svg" xmlns:xlink="http://www.w3.org/1999/xlink">
    <!-- Generator: Sketch 64 (93537) - https://sketch.com -->
    <title>UI/Icons/Mixer</title>
    <desc>Created with Sketch.</desc>
    <defs>
        <path d="M20.3823529,12.3046875 C20.7235064,12.3046875 21,12.580101 21,12.9199219 L21,20.3847656 C21,20.7245865 20.7235064,21 20.3823529,21 L17.9117647,21 C17.5706112,21 17.2941176,20.7245865 17.2941176,20.3847656 L17.2941176,12.9199219 C17.2941176,12.580101 17.5706112,12.3046875 17.9117647,12.3046875 L20.3823529,12.3046875 Z M14.6176471,7.3828125 C14.9588005,7.3828125 15.2352941,7.65822602 15.2352941,7.99804687 L15.2352941,20.3847656 C15.2352941,20.7245865 14.9588005,21 14.6176471,21 L12.1470588,21 C11.8059053,21 11.5294118,20.7245865 11.5294118,20.3847656 L11.5294118,7.99804687 C11.5294118,7.65822602 11.8059053,7.3828125 12.1470588,7.3828125 L14.6176471,7.3828125 Z M8.85294118,9.84375 C9.19409466,9.84375 9.47058824,10.1191635 9.47058824,10.4589844 L9.47058824,20.3847656 C9.47058824,20.7245865 9.19409466,21 8.85294118,21 L6.38235294,21 C6.04119946,21 5.76470588,20.7245865 5.76470588,20.3847656 L5.76470588,10.4589844 C5.76470588,10.1191635 6.04119946,9.84375 6.38235294,9.84375 L8.85294118,9.84375 Z M3.08823529,12.3046875 C3.42938878,12.3046875 3.70588235,12.580101 3.70588235,12.9199219 L3.70588235,20.3847656 C3.70588235,20.7245865 3.42938878,21 3.08823529,21 L0.617647059,21 C0.276493576,21 0,20.7245865 0,20.3847656 L0,12.9199219 C0,12.580101 0.276493576,12.3046875 0.617647059,12.3046875 L3.08823529,12.3046875 Z M20.3823529,9.84375 C20.7235064,9.84375 21,10.1191635 21,10.4589844 C21,10.7988052 20.7235064,11.0742188 20.3823529,11.0742188 L17.9117647,11.0742188 C17.5706112,11.0742188 17.2941176,10.7988052 17.2941176,10.4589844 C17.2941176,10.1191635 17.5706112,9.84375 17.9117647,9.84375 L20.3823529,9.84375 Z M3.08823529,9.84375 C3.42938878,9.84375 3.70588235,10.1191635 3.70588235,10.4589844 C3.70588235,10.7988052 3.42938878,11.0742188 3.08823529,11.0742188 L0.617647059,11.0742188 C0.276493576,11.0742188 0,10.7988052 0,10.4589844 C0,10.1191635 0.276493576,9.84375 0.617647059,9.84375 L3.08823529,9.84375 Z M20.3823529,7.3828125 C20.7235064,7.3828125 21,7.65822602 21,7.99804688 C21,8.33786773 20.7235064,8.61328125 20.3823529,8.61328125 L17.9117647,8.61328125 C17.5706112,8.61328125 17.2941176,8.33786773 17.2941176,7.99804688 C17.2941176,7.65822602 17.5706112,7.3828125 17.9117647,7.3828125 L20.3823529,7.3828125 Z M8.85294118,7.3828125 C9.19409466,7.3828125 9.47058824,7.65822602 9.47058824,7.99804688 C9.47058824,8.33786773 9.19409466,8.61328125 8.85294118,8.61328125 L6.38235294,8.61328125 C6.04119946,8.61328125 5.76470588,8.33786773 5.76470588,7.99804688 C5.76470588,7.65822602 6.04119946,7.3828125 6.38235294,7.3828125 L8.85294118,7.3828125 Z M3.08823529,7.3828125 C3.42938878,7.3828125 3.70588235,7.65822602 3.70588235,7.99804688 C3.70588235,8.33786773 3.42938878,8.61328125 3.08823529,8.61328125 L0.617647059,8.61328125 C0.276493576,8.61328125 0,8.33786773 0,7.99804688 C0,7.65822602 0.276493576,7.3828125 0.617647059,7.3828125 L3.08823529,7.3828125 Z M20.3823529,4.921875 C20.7235064,4.921875 21,5.19728852 21,5.53710938 C21,5.87693023 20.7235064,6.15234375 20.3823529,6.15234375 L17.9117647,6.15234375 C17.5706112,6.15234375 17.2941176,5.87693023 17.2941176,5.53710938 C17.2941176,5.19728852 17.5706112,4.921875 17.9117647,4.921875 L20.3823529,4.921875 Z M8.85294118,4.921875 C9.19409466,4.921875 9.47058824,5.19728852 9.47058824,5.53710938 C9.47058824,5.87693023 9.19409466,6.15234375 8.85294118,6.15234375 L6.38235294,6.15234375 C6.04119946,6.15234375 5.76470588,5.87693023 5.76470588,5.53710938 C5.76470588,5.19728852 6.04119946,4.921875 6.38235294,4.921875 L8.85294118,4.921875 Z M14.6176471,4.921875 C14.9588005,4.921875 15.2352941,5.19728852 15.2352941,5.53710938 C15.2352941,5.87693023 14.9588005,6.15234375 14.6176471,6.15234375 L12.1470588,6.15234375 C11.8059053,6.15234375 11.5294118,5.87693023 11.5294118,5.53710938 C11.5294118,5.19728852 11.8059053,4.921875 12.1470588,4.921875 L14.6176471,4.921875 Z M8.85294118,2.4609375 C9.19409466,2.4609375 9.47058824,2.73635102 9.47058824,3.07617188 C9.47058824,3.41599273 9.19409466,3.69140625 8.85294118,3.69140625 L6.38235294,3.69140625 C6.04119946,3.69140625 5.76470588,3.41599273 5.76470588,3.07617188 C5.76470588,2.73635102 6.04119946,2.4609375 6.38235294,2.4609375 L8.85294118,2.4609375 Z M14.6176471,2.4609375 C14.9588005,2.4609375 15.2352941,2.73635102 15.2352941,3.07617188 C15.2352941,3.41599273 14.9588005,3.69140625 14.6176471,3.69140625 L12.1470588,3.69140625 C11.8059053,3.69140625 11.5294118,3.41599273 11.5294118,3.07617188 C11.5294118,2.73635102 11.8059053,2.4609375 12.1470588,2.4609375 L14.6176471,2.4609375 Z M14.6176471,0 C14.9588005,0 15.2352941,0.275413523 15.2352941,0.615234375 C15.2352941,0.955055227 14.9588005,1.23046875 14.6176471,1.23046875 L12.1470588,1.23046875 C11.8059053,1.23046875 11.5294118,0.955055227 11.5294118,0.615234375 C11.5294118,0.275413523 11.8059053,0 12.1470588,0 L14.6176471,0 Z" id="path-1"></path>
    </defs>
    <g id="UI/Icons/Mixer" stroke="none" stroke-width="1" fill="none" fill-rule="evenodd">
        <g id="Colours/White" transform="translate(2.000000, 1.000071)">
            <mask id="mask-2" fill="white">
                <use xlink:href="#path-1"></use>
            </mask>
            <use id="Mask" fill="#FFFFFF" fill-rule="nonzero" xlink:href="#path-1"></use>
        </g>
    </g>
</svg>