<?xml version="1.0" encoding="UTF-8"?>
<svg width="24px" height="24px" viewBox="0 0 24 24" version="1.1" xmlns="http://www.w3.org/2000/svg" xmlns:xlink="http://www.w3.org/1999/xlink">
    <!-- Generator: Sketch 64 (93537) - https://sketch.com -->
    <title>UI/Icons/Send</title>
    <desc>Created with Sketch.</desc>
    <defs>
        <path d="M8.75004448,17.6120886 L12.8170445,19.0020886 L10.1040445,22.6940886 C9.96004448,22.8900886 9.73404448,23.0000886 9.50004448,23.0000886 C9.42204448,23.0000886 9.34304448,22.9880886 9.26604448,22.9630886 C8.95804448,22.8610886 8.75004448,22.5740886 8.75004448,22.2500886 L8.75004448,22.2500886 L8.75004448,17.6120886 Z M22.9030445,0.0850886106 C23.1530445,-0.0459113894 23.4550445,-0.0239113894 23.6850445,0.139088611 C23.9150445,0.303088611 24.0330445,0.581088611 23.9920445,0.861088611 L23.9920445,0.861088611 L21.2420445,19.3610886 C21.2090445,19.5800886 21.0800445,19.7750886 20.8900445,19.8910886 C20.7710445,19.9630886 20.6360445,20.0000886 20.5000445,20.0000886 C20.4180445,20.0000886 20.3360445,19.9860886 20.2580445,19.9600886 L20.2580445,19.9600886 L9.77504448,16.3770886 L20.0830445,3.95808861 L6.76204448,15.3480886 L0.507044478,13.2100886 C0.224044478,13.1130886 0.0250444779,12.8570886 0.00204447789,12.5570886 C-0.0199555221,12.2580886 0.137044478,11.9740886 0.403044478,11.8350886 L0.403044478,11.8350886 Z" id="path-1"></path>
    </defs>
    <g id="UI/Icons/Send" stroke="none" stroke-width="1" fill="none" fill-rule="evenodd">
        <g id="Colours/White" transform="translate(-0.000044, 0.999911)">
            <mask id="mask-2" fill="white">
                <use xlink:href="#path-1"></use>
            </mask>
            <use id="Mask" fill="#000000" fill-rule="nonzero" xlink:href="#path-1"></use>
            <g mask="url(#mask-2)" fill="#FFFFFF" id="Rectangle">
                <g transform="translate(0.000044, -0.999911)">
                    <rect x="0" y="0" width="24" height="24"></rect>
                </g>
            </g>
        </g>
    </g>
</svg>