<?xml version="1.0" encoding="UTF-8"?>
<svg width="24px" height="24px" viewBox="0 0 24 24" version="1.1" xmlns="http://www.w3.org/2000/svg" xmlns:xlink="http://www.w3.org/1999/xlink">
    <!-- Generator: Sketch 64 (93537) - https://sketch.com -->
    <title>UI/Icons/Share</title>
    <desc>Created with Sketch.</desc>
    <defs>
        <path d="M18.4,-3.99680289e-14 C20.3146484,-3.99680289e-14 21.8666015,1.55214845 21.8666015,3.46660155 C21.8666015,5.38125 20.3146484,6.93339845 18.4,6.93339845 C17.4590022,6.93339845 16.6056119,6.55848385 15.9810096,5.94988151 L6.83239679,11.1659045 C6.89838786,11.4330694 6.93339845,11.7124442 6.93339845,12 C6.93339845,12.2871973 6.89847511,12.5662339 6.83264349,12.8330961 L15.9819949,18.0491587 C16.6065093,17.441122 17.459497,17.0666015 18.4,17.0666015 C20.3146484,17.0666015 21.8666015,18.61875 21.8666015,20.5333984 C21.8666015,22.4478515 20.3146484,24 18.4,24 C16.4853515,24 14.9333984,22.4478515 14.9333984,20.5333984 C14.9333984,20.3300109 14.950911,20.1307138 14.9845105,19.9369333 L5.70523377,14.6470884 C5.10123551,15.1583374 4.31992018,15.4666015 3.46660155,15.4666015 C1.55214845,15.4666015 2.03836947e-13,13.9146484 2.03836947e-13,12 C2.03836947e-13,10.0853516 1.55214845,8.53339845 3.46660155,8.53339845 C4.31992018,8.53339845 5.10123551,8.84166256 5.70523377,9.35291158 L14.9843369,4.0620643 C14.9508507,3.86859891 14.9333984,3.66963845 14.9333984,3.46660155 C14.9333984,1.55214845 16.4853515,-3.99680289e-14 18.4,-3.99680289e-14 Z" id="path-1"></path>
    </defs>
    <g id="UI/Icons/Share" stroke="none" stroke-width="1" fill="none" fill-rule="evenodd">
        <g id="Colours/White" transform="translate(1.000000, 0.000000)">
            <mask id="mask-2" fill="white">
                <use xlink:href="#path-1"></use>
            </mask>
            <use id="Mask" fill="#FFFFFF" fill-rule="nonzero" xlink:href="#path-1"></use>
            <g mask="url(#mask-2)" fill="#FFFFFF" id="Rectangle">
                <g transform="translate(-1.000000, 0.000000)">
                    <rect x="0" y="0" width="24" height="24"></rect>
                </g>
            </g>
        </g>
    </g>
</svg>