<?xml version="1.0" encoding="utf-8"?>
<!-- Generator: Adobe Illustrator 22.0.1, SVG Export Plug-In . SVG Version: 6.00 Build 0)  -->
<svg version="1.1" xmlns="http://www.w3.org/2000/svg" xmlns:xlink="http://www.w3.org/1999/xlink" x="0px" y="0px"
	 viewBox="0 0 24 24" style="enable-background:new 0 0 24 24;" xml:space="preserve">
<style type="text/css">
	.st0{fill:#FFFFFF;}
</style>
<g id="Layer_1">
</g>
<g id="Layer_2">
	<g>
		<path class="st0" d="M11.8,0.3C5.4,0.3,0.2,5.5,0.2,11.9s5.2,11.6,11.6,11.6s11.6-5.2,11.6-11.6S18.2,0.3,11.8,0.3z M16.5,17.4
			c-0.2,0-0.3-0.1-0.5-0.2c-2.9-1.8-6.3-1.8-9.7-1.1c-0.2,0-0.4,0.1-0.6,0.1c-0.5,0-0.7-0.4-0.7-0.7c0-0.5,0.3-0.7,0.6-0.8
			c3.8-0.8,7.8-0.8,11.1,1.2c0.3,0.2,0.5,0.3,0.5,0.8C17.2,17.1,16.9,17.4,16.5,17.4L16.5,17.4z M17.8,14.3c-0.2,0-0.4-0.1-0.6-0.2
			c-2.9-1.7-7.3-2.4-11.2-1.4c-0.2,0.1-0.3,0.1-0.6,0.1c-0.5,0-0.9-0.4-0.9-0.9s0.2-0.8,0.7-1c1.3-0.4,2.6-0.6,4.6-0.6
			c3,0,6,0.8,8.3,2.1c0.4,0.2,0.5,0.5,0.5,0.9C18.7,13.9,18.3,14.3,17.8,14.3z M19.2,10.8c-0.2,0-0.4-0.1-0.6-0.2
			c-3.3-2-9.3-2.5-13.2-1.4c-0.2,0-0.4,0.1-0.6,0.1c-0.6,0-1.1-0.5-1.1-1.1c0-0.6,0.4-1,0.8-1.1c1.7-0.5,3.5-0.7,5.5-0.7
			c3.4,0,7,0.7,9.6,2.2c0.4,0.2,0.6,0.5,0.6,1.1C20.3,10.3,19.8,10.8,19.2,10.8L19.2,10.8z"/>
	</g>
</g>
<g id="Layer_3">
</g>
</svg>
