<?xml version="1.0" encoding="UTF-8"?>
<svg width="24px" height="24px" viewBox="0 0 24 24" version="1.1" xmlns="http://www.w3.org/2000/svg" xmlns:xlink="http://www.w3.org/1999/xlink">
    <!-- Generator: Sketch 64 (93537) - https://sketch.com -->
    <title>UI/Icons/Twitter</title>
    <desc>Created with Sketch.</desc>
    <defs>
        <path d="M23.6307692,2.27298462 C22.752,2.65846154 21.8156308,2.91396923 20.8393846,3.03803077 C21.8436923,2.4384 22.6102154,1.49612308 22.9705846,0.360369231 C22.0342154,0.918646154 21.0003692,1.31298462 19.8985846,1.53304615 C19.0094769,0.586338462 17.7422769,-5.32907052e-15 16.3598769,-5.32907052e-15 C13.6777846,-5.32907052e-15 11.5185231,2.17698462 11.5185231,4.84578462 C11.5185231,5.22978462 11.5510154,5.59901538 11.6307692,5.95052308 C7.6032,5.75409231 4.03938462,3.82375385 1.64529231,0.8832 C1.22732308,1.60836923 0.982153846,2.4384 0.982153846,3.33193846 C0.982153846,5.00972308 1.84615385,6.49698462 3.13403077,7.35803077 C2.35569231,7.34326154 1.59212308,7.11729231 0.945230769,6.76135385 C0.945230769,6.77612308 0.945230769,6.79532308 0.945230769,6.81452308 C0.945230769,9.16873846 2.62449231,11.1241846 4.82658462,11.5746462 C4.43224615,11.6824615 4.00246154,11.7341538 3.55643077,11.7341538 C3.24627692,11.7341538 2.93316923,11.7164308 2.63926154,11.6514462 C3.26695385,13.5699692 5.04812308,14.9804308 7.16603077,15.0262154 C5.51778462,16.3155692 3.42498462,17.0924308 1.15938462,17.0924308 C0.762092308,17.0924308 0.381046154,17.0747077 6.92779167e-14,17.0259692 C2.14596923,18.4098462 4.68923077,19.2 7.43187692,19.2 C16.3465846,19.2 21.2204308,11.8153846 21.2204308,5.4144 C21.2204308,5.20024615 21.2130462,4.99347692 21.2027077,4.78818462 C22.1641846,4.10584615 22.9720615,3.25366154 23.6307692,2.27298462 Z" id="path-1"></path>
    </defs>
    <g id="UI/Icons/Twitter" stroke="none" stroke-width="1" fill="none" fill-rule="evenodd">
        <g id="Colours/White" transform="translate(-0.000000, 2.000000)">
            <mask id="mask-2" fill="white">
                <use xlink:href="#path-1"></use>
            </mask>
            <use id="Mask" fill="#FFFFFF" fill-rule="nonzero" xlink:href="#path-1"></use>
        </g>
    </g>
</svg>