<?xml version="1.0" encoding="UTF-8"?>
<svg width="24px" height="21px" viewBox="0 0 24 21" version="1.1" xmlns="http://www.w3.org/2000/svg" xmlns:xlink="http://www.w3.org/1999/xlink">
    <title>UI/Icons/Youtube</title>
    <defs>
        <path d="M23.988395,4.81205468 C23.8815943,7.1527898 22.2498237,10.3580105 19.0935633,14.4260368 C15.8307423,18.6755042 13.0700044,20.799998 10.8115898,20.799998 C9.41310081,20.799998 8.22869316,19.5066296 7.26196691,16.9182129 C6.61588274,14.5457976 5.97051857,12.1736222 5.3244344,9.80144691 C4.60634976,7.2144702 3.83618478,5.91942184 3.01273946,5.91942184 C2.8332183,5.91942184 2.20489424,6.29790428 1.12920729,7.05198915 L0,5.59445974 C1.18440765,4.551893 2.3529752,3.50908627 3.50258263,2.46507952 C5.08227283,1.09731069 6.26812049,0.37802604 7.0584456,0.305545572 C8.92637766,0.125784411 10.0759851,1.40499267 10.5075079,4.14317036 C10.9735909,7.09758945 11.296393,8.93528132 11.4778341,9.65456597 C12.0161576,12.1057018 12.6084814,13.3297097 13.2557656,13.3297097 C13.7580889,13.3297097 14.5126538,12.5345846 15.5187402,10.9448143 C16.5236267,9.35480403 17.0621902,8.14495621 17.1346707,7.31383085 C17.2779516,5.94174198 16.7393881,5.25365754 15.5187402,5.25365754 C14.9439365,5.25365754 14.3518527,5.38613839 13.7424888,5.64798008 C14.9218564,1.77699508 17.175471,-0.102937067 20.5018924,0.00434362645 C22.9679084,0.0770640962 24.1304759,1.67931445 23.988395,4.81205468" id="path-1"></path>
    </defs>
    <g id="Designs" stroke="none" stroke-width="1" fill="none" fill-rule="evenodd">
        <g id="Coming-soon_V2" transform="translate(-788.000000, -696.000000)">
            <g id="UI/Icons/Youtube" transform="translate(788.000000, 696.000000)">
                <g id="Colours/White" transform="translate(0.000055, 0.000000)">
                    <mask id="mask-2" fill="white">
                        <use xlink:href="#path-1"></use>
                    </mask>
                    <use id="Mask" fill="#FFFFFF" xlink:href="#path-1"></use>
                    <g mask="url(#mask-2)" fill="#FFFFFF" id="Rectangle">
                        <g transform="translate(-0.000055, -2.000000)">
                            <rect x="0" y="0" width="229" height="229"></rect>
                        </g>
                    </g>
                </g>
            </g>
        </g>
    </g>
</svg>