<?xml version="1.0" encoding="utf-8"?>
<!-- Generator: Adobe Illustrator 22.0.1, SVG Export Plug-In . SVG Version: 6.00 Build 0)  -->
<svg version="1.1" id="Layer_1" xmlns="http://www.w3.org/2000/svg" xmlns:xlink="http://www.w3.org/1999/xlink" x="0px" y="0px"
	 viewBox="0 0 24 24" style="enable-background:new 0 0 24 24;" xml:space="preserve">
<style type="text/css">
	.st0{fill:none;}
</style>
<title>UI/Icons/Youtube</title>
<desc>Created with Sketch.</desc>
<g id="UI_x2F_Icons_x2F_Youtube">
	<g id="Colours_x2F_White" transform="translate(0.000000, 4.000000)">
		<g id="youtube">
			<path id="path-1_1_" d="M12.3,0c1.5,0,7.4,0.1,9.1,0.5c1,0.3,1.8,1.1,2.1,2.1C24,4.3,24,7.5,24,8.3v0.2c0,0.4,0,4-0.5,5.7
				c-0.3,1-1.1,1.8-2.1,2.1c-1.9,0.5-9.4,0.5-9.4,0.5l0,0c-0.3,0-7.5,0-9.4-0.5c-1-0.3-1.8-1.1-2.1-2.1C0.1,12.5,0,9.3,0,8.6V8.2
				c0-0.8,0.1-4,0.5-5.6c0.3-1,1.1-1.9,2.1-2.1C4.2,0.1,10.2,0,11.7,0H12.3z M9.6,4.8V12l6.2-3.6L9.6,4.8z"/>
		</g>
		<g id="Rectangle">
			<g transform="translate(0.000000, -4.000000)">
				<rect class="st0" width="24" height="24"/>
			</g>
		</g>
	</g>
</g>
</svg>
