<?xml version="1.0" encoding="UTF-8"?>
<svg width="24px" height="24px" viewBox="0 0 24 24" version="1.1" xmlns="http://www.w3.org/2000/svg" xmlns:xlink="http://www.w3.org/1999/xlink">
    <!-- Generator: Sketch 64 (93537) - https://sketch.com -->
    <title>UI/Icons/Youtube</title>
    <desc>Created with Sketch.</desc>
    <defs>
        <path d="M12.3398017,0.000974387125 C13.8261275,0.00828141689 19.7521472,0.0655198167 21.3905173,0.513887282 C22.4184817,0.790745526 23.2290977,1.60117843 23.5057729,2.62932596 C23.9576151,4.27964436 23.9971897,7.5027018 24.0001449,8.25980196 L24.0001534,8.46334128 C23.9984478,8.8863978 23.9703055,12.4300779 23.505956,14.1943833 C23.2290977,15.2223478 22.4186648,16.0329638 21.3905173,16.3096389 C19.5123857,16.8040286 12.0000423,16.8040286 12.0000423,16.8040286 L11.9899926,16.8040237 C11.6837346,16.803796 4.46691425,16.7930928 2.60956725,16.2900464 C1.58141973,16.0131882 0.770986818,15.2025721 0.494128573,14.1746077 C0.0598257799,12.541507 0.00718301706,9.32067793 0.000802076107,8.56386501 L0.000802076107,8.24082763 C0.00718301706,7.48742978 0.0598257799,4.27964436 0.494128573,2.62932596 C0.770803676,1.60136153 1.60119531,0.770969938 2.60938416,0.494294788 C4.24775429,0.0630186473 10.1736346,0.00796211867 11.6599249,0.000933625651 Z M9.60792844,4.80390831 L9.60792844,12.0000254 L15.8550003,8.40196687 L9.60792844,4.80390831 Z" id="path-1"></path>
    </defs>
    <g id="UI/Icons/Youtube" stroke="none" stroke-width="1" fill="none" fill-rule="evenodd">
        <g id="Colours/White" transform="translate(0.000000, 4.000000)">
            <mask id="mask-2" fill="white">
                <use xlink:href="#path-1"></use>
            </mask>
            <use id="youtube" fill="#FFFFFF" fill-rule="nonzero" xlink:href="#path-1"></use>
            <g mask="url(#mask-2)" fill="#FFFFFF" id="Rectangle">
                <g transform="translate(0.000000, -4.000000)">
                    <rect x="0" y="0" width="24" height="24"></rect>
                </g>
            </g>
        </g>
    </g>
</svg>