<?xml version="1.0" encoding="UTF-8"?>
<svg width="960px" height="236px" viewBox="0 0 960 236" version="1.1" xmlns="http://www.w3.org/2000/svg" xmlns:xlink="http://www.w3.org/1999/xlink">
    <!-- Generator: Sketch 64 (93537) - https://sketch.com -->
    <title>UI/Graphics/Line</title>
    <desc>Created with Sketch.</desc>
    <defs>
        <path d="M446.69184,3.33365348 C447.467648,-0.912409779 453.546164,-0.740410865 454.142351,3.45741339 L454.160907,3.60548147 L478.954331,231.393036 C479.330909,234.859033 484.236394,235.047195 484.932127,231.704277 L484.958656,231.562945 L505.902709,106.140348 C506.570495,102.134963 512.165652,101.870037 513.253942,105.710561 L513.292171,105.85468 L520.362348,134.479651 C520.686747,135.789753 521.832015,136.728886 523.175691,136.78691 C524.473007,136.842932 525.656348,136.064688 526.128239,134.861392 L526.176049,134.730859 L528.908821,126.707726 C529.416846,125.212232 530.796988,124.19032 532.371196,124.144277 C533.894639,124.099718 535.289706,124.978175 535.916387,126.360918 L535.97647,126.500858 L542.446979,142.416245 L1034.40023,142.483063 L1034.40023,143.229267 L541.946829,143.162825 L535.286748,126.782206 C534.809845,125.607343 533.656293,124.853212 532.392923,124.890164 C531.174657,124.925796 530.101017,125.689819 529.66005,126.821262 L529.613682,126.948471 L526.880786,134.971967 C526.338713,136.562338 524.817461,137.604704 523.143629,137.532423 C521.520545,137.462333 520.130155,136.360405 519.679048,134.806156 L519.63953,134.659138 L512.569341,106.034124 C511.787952,102.876797 507.314399,103.002937 506.663749,106.121755 L506.637195,106.263403 L485.693083,231.686355 C484.97297,235.980078 478.833002,235.853398 478.232708,231.623104 L478.214031,231.473871 L453.420617,3.68639984 C453.046334,0.248722554 448.192171,0.0245779085 447.453105,3.32640726 L447.42435,3.46802043 L412.752137,193.28684 C412.03186,197.231438 406.5295,197.477178 405.419788,193.695375 L405.38025,193.551669 L386.407276,119.773839 C386.09583,118.562747 385.077714,117.666375 383.840865,117.514065 C382.64989,117.367404 381.489533,117.939378 380.874833,118.963709 L380.806357,119.083893 L368.998824,140.943604 C368.362926,142.120689 367.157496,142.870354 365.83142,142.924214 L365.677902,142.927326 L0,142.751512 L0,142.005307 L365.678097,142.181121 C366.744147,142.181169 367.728262,141.619784 368.275111,140.709132 L368.34393,140.588388 L380.151463,118.728676 C380.891204,117.359379 382.390795,116.58368 383.931697,116.773432 C385.422827,116.957055 386.658499,118.008543 387.088143,119.442936 L387.1284,119.587633 L406.101374,193.365461 C406.900999,196.474823 411.299854,196.36388 411.990793,193.294087 L412.01962,193.152514 L446.69184,3.33365348 Z" id="path-1"></path>
    </defs>
    <g id="Symbols" stroke="none" stroke-width="1" fill="none" fill-rule="evenodd">
        <g id="UI/Sections/How-to" transform="translate(-596.000000, 2.000000)">
            <g id="UI/Graphics/Line" transform="translate(596.000000, -27.000000)">
                <g id="Colours/Orange" transform="translate(-34.200179, 25.251534)">
                    <mask id="mask-2" fill="white">
                        <use xlink:href="#path-1"></use>
                    </mask>
                    <g id="Mask" fill-rule="nonzero" transform="translate(517.200114, 117.539869) scale(-1, 1) translate(-517.200114, -117.539869) "></g>
                    <g id="Colours/White" mask="url(#mask-2)" fill="#FFFFFF">
                        <g transform="translate(34.200179, -25.251534)" id="Rectangle">
                            <rect x="0" y="0" width="960" height="294"></rect>
                        </g>
                    </g>
                </g>
            </g>
        </g>
    </g>
</svg>