<?xml version="1.0" encoding="UTF-8"?>
<svg width="24px" height="24px" viewBox="0 0 24 24" version="1.1" xmlns="http://www.w3.org/2000/svg" xmlns:xlink="http://www.w3.org/1999/xlink">
    <!-- Generator: Sketch 64 (93537) - https://sketch.com -->
    <title>UI/Icons/Insta</title>
    <desc>Created with Sketch.</desc>
    <defs>
        <path d="M16.0548722,-3.37507799e-14 C20.0846451,-3.37507799e-14 23.3525413,3.26789625 23.3525413,7.29766917 L23.3525413,7.29766917 L23.3525413,16.0548722 C23.3525413,20.0846451 20.0846451,23.3525413 16.0548722,23.3525413 L16.0548722,23.3525413 L7.29766917,23.3525413 C3.26789625,23.3525413 4.40536496e-13,20.0846451 4.40536496e-13,16.0548722 L4.40536496e-13,16.0548722 L4.40536496e-13,7.29766917 C4.40536496e-13,3.26789625 3.26789625,-3.37507799e-14 7.29766917,-3.37507799e-14 L7.29766917,-3.37507799e-14 Z M16.0548722,2.18930075 L7.29766917,2.18930075 C4.48076887,2.18930075 2.18930075,4.48076887 2.18930075,7.29766917 L2.18930075,7.29766917 L2.18930075,16.0548722 C2.18930075,18.8717725 4.48076887,21.1632406 7.29766917,21.1632406 L7.29766917,21.1632406 L16.0548722,21.1632406 C18.8717725,21.1632406 21.1632406,18.8717725 21.1632406,16.0548722 L21.1632406,16.0548722 L21.1632406,7.29766917 C21.1632406,4.48076887 18.8717725,2.18930075 16.0548722,2.18930075 L16.0548722,2.18930075 Z M11.6762707,5.83813533 C14.9003809,5.83813533 17.514406,8.45216043 17.514406,11.6762707 C17.514406,14.9003809 14.9003809,17.514406 11.6762707,17.514406 C8.45216043,17.514406 5.83813533,14.9003809 5.83813533,11.6762707 C5.83813533,8.45216043 8.45216043,5.83813533 11.6762707,5.83813533 Z M11.6762707,8.02743608 C9.66503305,8.02743608 8.02743608,9.66357351 8.02743608,11.6762707 C8.02743608,13.6875083 9.66503305,15.3251053 11.6762707,15.3251053 C13.6875083,15.3251053 15.3251053,13.6875083 15.3251053,11.6762707 C15.3251053,9.66357351 13.6875083,8.02743608 11.6762707,8.02743608 Z M17.9522662,4.62234365 C18.3819059,4.62234365 18.7301977,4.97063546 18.7301977,5.40027518 C18.7301977,5.82991491 18.3819059,6.17820672 17.9522662,6.17820672 C17.5226264,6.17820672 17.1743346,5.82991491 17.1743346,5.40027518 C17.1743346,4.97063546 17.5226264,4.62234365 17.9522662,4.62234365 Z" id="path-1"></path>
    </defs>
    <g id="UI/Icons/Insta" stroke="none" stroke-width="1" fill="none" fill-rule="evenodd">
        <g id="Colours/White">
            <mask id="mask-2" fill="white">
                <use xlink:href="#path-1"></use>
            </mask>
            <use id="instagram" fill="#FFFFFF" fill-rule="nonzero" xlink:href="#path-1"></use>
            <g mask="url(#mask-2)" fill="#FFFFFF" id="Rectangle">
                <rect x="0" y="0" width="24" height="24"></rect>
            </g>
        </g>
    </g>
</svg>