<?xml version="1.0" encoding="utf-8"?>
<!-- Generator: Adobe Illustrator 22.0.1, SVG Export Plug-In . SVG Version: 6.00 Build 0)  -->
<svg version="1.1" id="Layer_1" xmlns="http://www.w3.org/2000/svg" xmlns:xlink="http://www.w3.org/1999/xlink" x="0px" y="0px"
	 viewBox="0 0 253 30" style="enable-background:new 0 0 253 30;" xml:space="preserve">
<style type="text/css">
	.st0{filter:url(#Adobe_OpacityMaskFilter);}
	.st1{fill:#FFFFFF;}
	.st2{mask:url(#mask-2_1_);}
</style>
<title>UI/Logos/White_Global</title>
<desc>Created with Sketch.</desc>
<g id="Symbols">
	<g id="UI_x2F_Sections_x2F_Nav_x5F_Light" transform="translate(-515.000000, -30.000000)">
		<g id="UI_x2F_Logos_x2F_Global_x5F_Live" transform="translate(515.000000, 30.000000)">
			<g id="Colours_x2F_White" transform="translate(-0.000000, -0.000000)">
				<g id="Mask">
					<path id="path-1_1_" d="M66.8,0C75,0,81.7,6.6,81.7,14.8c0,8.2-6.6,14.8-14.8,14.8S52,23,52,14.8C52,6.6,58.6,0,66.8,0z
						 M15,0.4c2.1,0,4.1,0.4,6,1.1c1.8,0.8,3.4,1.8,4.7,3.1l0,0l-5.6,5c-0.6-0.7-1.4-1.2-2.3-1.6c-0.9-0.4-1.8-0.6-2.9-0.6
						c-1.1,0-2,0.2-2.9,0.6c-0.9,0.4-1.6,0.9-2.2,1.6c-0.6,0.7-1.1,1.5-1.4,2.4c-0.3,0.9-0.5,1.9-0.5,2.9l0,0v0.1c0,1,0.2,2,0.5,2.9
						c0.3,0.9,0.8,1.7,1.5,2.4c0.6,0.7,1.4,1.2,2.2,1.6c0.9,0.4,1.8,0.6,2.9,0.6c1.1,0,2-0.2,2.9-0.6c0.4-0.2,0.7-0.4,1-0.6l0,0v-3
						h-5.5v-5.6h12.8v12l-0.6,0.5c-1.3,1.3-2.9,2.3-4.8,3.1s-3.8,1.1-6,1.1c-2.1,0-4.1-0.4-6-1.1s-3.4-1.8-4.7-3.1
						c-1.3-1.3-2.4-2.8-3.1-4.6C0.4,18.8,0,16.9,0,14.9l0,0v-0.1c0-2,0.4-3.9,1.1-5.6c0.8-1.8,1.8-3.3,3.2-4.6
						c1.3-1.3,2.9-2.3,4.8-3.1C10.9,0.8,12.9,0.4,15,0.4z M208.8,1l5.5,15.4L219.9,1h9.4l-11.2,27.9h-7.7L199.2,1H208.8z M37.4,0.9
						v21h13.5v6.7H29.6V0.9H37.4z M98.9,0.7c3.3,0,9.2,1.2,9.2,7.5l0,0v0.1c0,4-2.6,5.9-4.3,6.4c1.7,0.6,4.3,2.4,4.3,6.4l0,0v0.1
						c0,6.3-5.9,7.5-9.2,7.5l0,0H84.5v-28H98.9z M127.7,0.7l11.8,28h-8.3l-2-5h-10.7l-2,5h-8.1l11.8-28H127.7z M149.9,0.9v21h13.5
						v6.7h-21.2V0.9H149.9z M174.7,1v20h12.8v7.7h-21.4V1H174.7z M198.1,1v27.7h-8.6V1H198.1z M252.8,1v7.5h-14v2.7h12.7v7h-12.7
						v2.9h14.2v7.5h-22.7V1H252.8z M207.9,2.3h-6.8l10.2,25.3h5.9l10.2-25.3h-6.6l-6.4,18L207.9,2.3z M173.4,2.3h-6v25.1h18.8v-5.1
						h-12.8V2.3z M196.8,2.3h-6.1v25.1h6.1V2.3z M251.5,2.3h-19.9v25.1h20.1v-4.9h-14.2V17h12.7v-4.5h-12.7V7.2h14V2.3z M97.4,17.7
						h-5.9v5.1h6c1.2,0,2.1-0.2,2.7-0.7c0.6-0.4,1-1.1,1-1.9l0,0v-0.1c0-0.8-0.3-1.4-0.9-1.8C99.6,18,98.6,17.7,97.4,17.7L97.4,17.7
						z M63.4,8.6c-0.2-0.1-0.4,0-0.4,0.2l0,0v11.8c0,0.2,0.2,0.3,0.4,0.2l0,0l5.1-3l5.1-3c0.2-0.1,0.2-0.3,0-0.4l0,0L63.4,8.6z
						 M123.9,9.9l-3.1,7.9h6.2L123.9,9.9z M97.4,6.6h-6v5.1h5.9c1.3,0,2.2-0.2,2.9-0.7c0.6-0.5,0.9-1.1,0.9-1.8l0,0V9.1
						c0-0.8-0.3-1.4-1-1.9C99.5,6.8,98.6,6.6,97.4,6.6L97.4,6.6z"/>
				</g>
				<defs>
					<filter id="Adobe_OpacityMaskFilter" filterUnits="userSpaceOnUse" x="0" y="0" width="253" height="30">
						<feColorMatrix  type="matrix" values="1 0 0 0 0  0 1 0 0 0  0 0 1 0 0  0 0 0 1 0"/>
					</filter>
				</defs>
				<mask maskUnits="userSpaceOnUse" x="0" y="0" width="253" height="30" id="mask-2_1_">
					<g class="st0">
						<path id="path-1_2_" class="st1" d="M66.8,0C75,0,81.7,6.6,81.7,14.8c0,8.2-6.6,14.8-14.8,14.8S52,23,52,14.8
							C52,6.6,58.6,0,66.8,0z M15,0.4c2.1,0,4.1,0.4,6,1.1c1.8,0.8,3.4,1.8,4.7,3.1l0,0l-5.6,5c-0.6-0.7-1.4-1.2-2.3-1.6
							c-0.9-0.4-1.8-0.6-2.9-0.6c-1.1,0-2,0.2-2.9,0.6c-0.9,0.4-1.6,0.9-2.2,1.6c-0.6,0.7-1.1,1.5-1.4,2.4c-0.3,0.9-0.5,1.9-0.5,2.9
							l0,0v0.1c0,1,0.2,2,0.5,2.9c0.3,0.9,0.8,1.7,1.5,2.4c0.6,0.7,1.4,1.2,2.2,1.6c0.9,0.4,1.8,0.6,2.9,0.6c1.1,0,2-0.2,2.9-0.6
							c0.4-0.2,0.7-0.4,1-0.6l0,0v-3h-5.5v-5.6h12.8v12l-0.6,0.5c-1.3,1.3-2.9,2.3-4.8,3.1s-3.8,1.1-6,1.1c-2.1,0-4.1-0.4-6-1.1
							s-3.4-1.8-4.7-3.1c-1.3-1.3-2.4-2.8-3.1-4.6C0.4,18.8,0,16.9,0,14.9l0,0v-0.1c0-2,0.4-3.9,1.1-5.6c0.8-1.8,1.8-3.3,3.2-4.6
							c1.3-1.3,2.9-2.3,4.8-3.1C10.9,0.8,12.9,0.4,15,0.4z M208.8,1l5.5,15.4L219.9,1h9.4l-11.2,27.9h-7.7L199.2,1H208.8z M37.4,0.9
							v21h13.5v6.7H29.6V0.9H37.4z M98.9,0.7c3.3,0,9.2,1.2,9.2,7.5l0,0v0.1c0,4-2.6,5.9-4.3,6.4c1.7,0.6,4.3,2.4,4.3,6.4l0,0v0.1
							c0,6.3-5.9,7.5-9.2,7.5l0,0H84.5v-28H98.9z M127.7,0.7l11.8,28h-8.3l-2-5h-10.7l-2,5h-8.1l11.8-28H127.7z M149.9,0.9v21h13.5
							v6.7h-21.2V0.9H149.9z M174.7,1v20h12.8v7.7h-21.4V1H174.7z M198.1,1v27.7h-8.6V1H198.1z M252.8,1v7.5h-14v2.7h12.7v7h-12.7
							v2.9h14.2v7.5h-22.7V1H252.8z M207.9,2.3h-6.8l10.2,25.3h5.9l10.2-25.3h-6.6l-6.4,18L207.9,2.3z M173.4,2.3h-6v25.1h18.8v-5.1
							h-12.8V2.3z M196.8,2.3h-6.1v25.1h6.1V2.3z M251.5,2.3h-19.9v25.1h20.1v-4.9h-14.2V17h12.7v-4.5h-12.7V7.2h14V2.3z M97.4,17.7
							h-5.9v5.1h6c1.2,0,2.1-0.2,2.7-0.7c0.6-0.4,1-1.1,1-1.9l0,0v-0.1c0-0.8-0.3-1.4-0.9-1.8C99.6,18,98.6,17.7,97.4,17.7
							L97.4,17.7z M63.4,8.6c-0.2-0.1-0.4,0-0.4,0.2l0,0v11.8c0,0.2,0.2,0.3,0.4,0.2l0,0l5.1-3l5.1-3c0.2-0.1,0.2-0.3,0-0.4l0,0
							L63.4,8.6z M123.9,9.9l-3.1,7.9h6.2L123.9,9.9z M97.4,6.6h-6v5.1h5.9c1.3,0,2.2-0.2,2.9-0.7c0.6-0.5,0.9-1.1,0.9-1.8l0,0V9.1
							c0-0.8-0.3-1.4-1-1.9C99.5,6.8,98.6,6.6,97.4,6.6L97.4,6.6z"/>
					</g>
				</mask>
				<g id="Rectangle" class="st2">
					<rect width="253" height="30"/>
				</g>
			</g>
		</g>
	</g>
</g>
</svg>
