<?xml version="1.0" encoding="UTF-8"?>
<svg width="253px" height="30px" viewBox="0 0 253 30" version="1.1" xmlns="http://www.w3.org/2000/svg" xmlns:xlink="http://www.w3.org/1999/xlink">
    <!-- Generator: Sketch 64 (93537) - https://sketch.com -->
    <title>UI/Logos/White_Global</title>
    <desc>Created with Sketch.</desc>
    <defs>
        <path d="M66.835201,-2.66453526e-14 C75.0275211,-2.66453526e-14 81.6688012,6.6409601 81.6688012,14.8336002 C81.6688012,23.0259203 75.0275211,29.6672004 66.835201,29.6672004 C58.6428809,29.6672004 52.0016008,23.0259203 52.0016008,14.8336002 C52.0016008,6.6409601 58.6428809,-2.66453526e-14 66.835201,-2.66453526e-14 Z M15.0044802,0.384448006 C17.1481603,0.384448006 19.1328003,0.761728011 20.9587203,1.51564802 C22.7846403,2.26988803 24.3590404,3.29580805 25.6825604,4.59212807 L25.6825604,4.59212807 L20.0800003,9.59372814 C19.4428803,8.90572813 18.6867203,8.35692812 17.8112003,7.94636812 C16.9353603,7.53644811 15.9667202,7.33100811 14.9052802,7.33100811 C13.8435202,7.33100811 12.8812802,7.52940811 12.0195202,7.92652812 C11.1564802,8.32364812 10.4134402,8.85932813 9.78944015,9.53420814 C9.16576014,10.2090882 8.68800013,10.9966082 8.35680012,11.8961282 C8.02496012,12.7959682 7.85952012,13.7486082 7.85952012,14.7543682 L7.85952012,14.7543682 L7.85952012,14.8337282 C7.85952012,15.8394882 8.03200012,16.7921283 8.37664012,17.6913283 C8.72160013,18.5914883 9.20608014,19.3854083 9.82976015,20.0734083 C10.4534402,20.7617283 11.2032002,21.3105283 12.0790402,21.7204483 C12.9545602,22.1310083 13.9228802,22.3358083 14.9846402,22.3358083 C16.0460802,22.3358083 17.0147203,22.1374083 17.8905603,21.7406083 C18.2480003,21.5783683 18.5779203,21.3870083 18.8915203,21.1786883 L18.8915203,21.1786883 L18.8915203,18.1991683 L13.4134402,18.1991683 L13.4134402,12.5623682 L26.1952004,12.5623682 L26.1952004,24.5399684 L25.6428804,25.0548484 C24.2931204,26.3649284 22.7052803,27.3969284 20.8793603,28.1511684 C19.0534403,28.9054084 17.0684803,29.2823684 14.9251202,29.2823684 C12.7814402,29.2823684 10.7968002,28.9054084 8.97088013,28.1511684 C7.14496011,27.3969284 5.57024008,26.3716484 4.24704006,25.0750084 C2.92352004,23.7786884 1.88544003,22.2564483 1.13120002,20.5098883 C0.376960006,18.7633283 -3.69482223e-13,16.8977283 -3.69482223e-13,14.9130882 L-3.69482223e-13,14.9130882 L-3.69482223e-13,14.8337282 C-3.69482223e-13,12.8487682 0.376960006,10.9767682 1.13120002,9.21676814 C1.88544003,7.45708811 2.93728004,5.92204809 4.28672006,4.61196807 C5.63648008,3.30220805 7.22432011,2.26988803 9.05024013,1.51564802 C10.8761602,0.761728011 12.8608002,0.384448006 15.0044802,0.384448006 Z M208.797635,1.01257602 L214.341635,16.4592962 L219.885635,1.01257602 L229.313475,1.01257602 L218.091395,28.8708164 L210.441155,28.8708164 L199.218755,1.01257602 L208.797635,1.01257602 Z M37.3502086,0.940192014 L37.3502086,21.9785923 L50.8068488,21.9785923 L50.8068488,28.7267524 L29.6494084,28.7267524 L29.6494084,0.940192014 L37.3502086,0.940192014 Z M98.8575695,0.711584011 C102.19197,0.711584011 108.09661,1.95542403 108.09661,8.23126412 L108.09661,8.23126412 L108.09661,8.31062412 C108.09661,12.3375042 105.54077,14.1634242 103.84189,14.7192642 C105.54077,15.2751042 108.09661,17.1010243 108.09661,21.1279043 L108.09661,21.1279043 L108.09661,21.2072643 C108.09661,27.4834244 102.19197,28.7266244 98.8575695,28.7266244 L98.8575695,28.7266244 L84.5276493,28.7266244 L84.5276493,0.711584011 Z M127.698498,0.741696011 L139.527938,28.7266564 L131.270978,28.7266564 L129.246658,23.7647364 L118.529218,23.7647364 L116.544258,28.7266564 L108.446658,28.7266564 L120.275458,0.741696011 L127.698498,0.741696011 Z M149.927554,0.940192014 L149.927554,21.9785923 L163.384194,21.9785923 L163.384194,28.7267524 L142.226754,28.7267524 L142.226754,0.940192014 L149.927554,0.940192014 Z M174.681411,1.01260802 L174.681411,20.9934083 L187.461251,20.9934083 L187.461251,28.6823684 L166.08781,28.6823684 L166.08781,1.01260802 L174.681411,1.01260802 Z M198.092675,1.01260802 L198.092675,28.6823684 L189.460995,28.6823684 L189.460995,1.01260802 L198.092675,1.01260802 Z M252.7561,1.01260802 L252.7561,8.51340813 L238.76986,8.51340813 L238.76986,11.2292482 L251.43674,11.2292482 L251.43674,18.2772483 L238.76986,18.2772483 L238.76986,21.1822083 L252.9449,21.1822083 L252.9449,28.6823684 L230.289219,28.6823684 L230.289219,1.01260802 L252.7561,1.01260802 Z M207.897155,2.29257603 L201.114435,2.29257603 L211.305475,27.5908164 L217.227075,27.5908164 L227.418115,2.29257603 L220.786115,2.29257603 L214.341635,20.2480963 L207.897155,2.29257603 Z M173.401411,2.29260803 L167.36781,2.29260803 L167.36781,27.4023684 L186.181251,27.4023684 L186.181251,22.2734083 L173.401411,22.2734083 L173.401411,2.29260803 Z M196.812995,2.29260803 L190.741315,2.29260803 L190.741315,27.4023684 L196.812995,27.4023684 L196.812995,2.29260803 Z M251.4761,2.29260803 L231.569219,2.29260803 L231.569219,27.4023684 L251.6649,27.4023684 L251.6649,22.4622083 L237.48986,22.4622083 L237.48986,16.9972483 L250.15674,16.9972483 L250.15674,12.5092482 L237.48986,12.5092482 L237.48986,7.23340811 L251.4761,7.23340811 L251.4761,2.29260803 Z M97.3503695,17.7336643 L91.4754894,17.7336643 L91.4754894,22.8543043 L97.4297295,22.8543043 C98.6207695,22.8543043 99.5337295,22.6360643 100.168929,22.1992643 C100.80381,21.7627843 101.12157,21.1346243 101.12157,20.3138243 L101.12157,20.3138243 L101.12157,20.2344643 C101.12157,19.4674243 100.81693,18.8584643 100.208609,18.4085443 C99.5993295,17.9589443 98.6466895,17.7336643 97.3503695,17.7336643 L97.3503695,17.7336643 Z M63.4416009,8.59680013 C63.2758409,8.50112013 63.0691209,8.62080013 63.0691209,8.81184013 L63.0691209,8.81184013 L63.0691209,20.6268803 C63.0691209,20.8179203 63.2758409,20.9372803 63.4416009,20.8416003 L63.4416009,20.8416003 L68.557761,17.8880003 L73.6736011,14.9344002 C73.8393611,14.8387202 73.8393611,14.5996802 73.6736011,14.5043202 L73.6736011,14.5043202 Z M123.927938,9.91129615 L120.791618,17.8104963 L127.023618,17.8104963 L123.927938,9.91129615 Z M97.4297295,6.5842241 L91.4754894,6.5842241 L91.4754894,11.7048642 L97.3503695,11.7048642 C98.6466895,11.7048642 99.5993295,11.4795842 100.208609,11.0299842 C100.81693,10.5797442 101.12157,9.97110415 101.12157,9.20406414 L101.12157,9.20406414 L101.12157,9.12438414 C101.12157,8.30390412 100.80381,7.67574411 100.168929,7.23926411 C99.5337295,6.8024641 98.6207695,6.5842241 97.4297295,6.5842241 L97.4297295,6.5842241 Z" id="path-1"></path>
    </defs>
    <g id="Symbols" stroke="none" stroke-width="1" fill="none" fill-rule="evenodd">
        <g id="UI/Sections/Nav_Light" transform="translate(-515.000000, -30.000000)">
            <g id="UI/Logos/Global_Live" transform="translate(515.000000, 30.000000)">
                <g id="Colours/White" transform="translate(-0.000000, -0.000000)">
                    <mask id="mask-2" fill="white">
                        <use xlink:href="#path-1"></use>
                    </mask>
                    <use id="Mask" fill="#FFFFFF" xlink:href="#path-1"></use>
                    <g mask="url(#mask-2)" fill="#FFFFFF" id="Rectangle">
                        <rect x="0" y="0" width="253" height="30"></rect>
                    </g>
                </g>
            </g>
        </g>
    </g>
</svg>