<?xml version="1.0" encoding="UTF-8"?>
<svg width="428px" height="633px" viewBox="0 0 428 633" version="1.1" xmlns="http://www.w3.org/2000/svg" xmlns:xlink="http://www.w3.org/1999/xlink">
    <title>Pause</title>
    <g id="Designs" stroke="none" stroke-width="1" fill="none" fill-rule="evenodd">
        <g id="Artboard" transform="translate(-782.000000, -519.000000)" fill="#41D9AE">
            <path d="M808.006493,519.724675 C808.012891,519.724673 808.019289,519.724673 808.02568,519.743862 L924.753361,519.786932 C939.105262,519.811428 950.738461,531.444624 950.762962,545.796524 L950.976975,1125.35458 C951.001465,1139.71398 939.365167,1151.35887 925.005764,1151.36417 C924.999366,1151.36418 924.992968,1151.36418 924.986577,1151.34499 L808.258896,1151.30192 C793.906995,1151.27742 782.273796,1139.64423 782.249295,1125.29233 L782.035282,545.734269 C782.010792,531.374873 793.64709,519.729978 808.006493,519.724675 Z M1066.09074,519.390196 L1182.81842,519.433265 C1197.17032,519.457762 1208.80352,531.090957 1208.82802,545.442858 L1209.04204,1125.00091 C1209.06653,1139.36031 1197.43023,1151.00521 1183.07082,1151.01051 C1183.06443,1151.01051 1183.05803,1151.01051 1183.05164,1150.99132 L1066.32396,1150.94825 C1051.97206,1150.92375 1040.33886,1139.29056 1040.31436,1124.93866 L1040.10034,545.380602 C1040.07585,531.021206 1051.71215,519.376311 1066.07155,519.371008 C1066.07795,519.371006 1066.08435,519.371006 1066.09074,519.390196 Z" id="Pause"></path>
        </g>
    </g>
</svg>