<?xml version="1.0" encoding="UTF-8"?>
<svg width="299px" height="299px" viewBox="0 0 299 299" version="1.1" xmlns="http://www.w3.org/2000/svg" xmlns:xlink="http://www.w3.org/1999/xlink">
    <!-- Generator: Sketch 64 (93537) - https://sketch.com -->
    <title>Group 79</title>
    <desc>Created with Sketch.</desc>
    <defs>
        <polygon id="path-1" points="0.135648005 0.0389280015 11.4890885 0.0389280015 11.4890885 13.9200006 0.135648005 13.9200006"></polygon>
        <polygon id="path-3" points="0 -0.000912000036 13.7797445 -0.000912000036 13.7797445 10.6181284 0 10.6181284"></polygon>
    </defs>
    <g id="Symbols" stroke="none" stroke-width="1" fill="none" fill-rule="evenodd">
        <g id="UI/Graphics/Spinner" transform="translate(0.000000, -1.000000)">
            <g id="Group-80" transform="translate(0.000000, 1.000000)">
                <g id="Group-79" transform="translate(0.000000, 0.273120)">
                    <path d="M128.846741,8.43115234 C130.322741,8.21371233 131.055701,7.20523229 130.886261,6.05515224 L130.880501,6.01675224 C130.686101,4.69435219 129.661781,4.12075216 128.185781,4.33771217 L125.904821,4.67323219 L126.508661,8.77483235 L128.846741,8.43115234 Z M122.561141,2.4431521 L128.043221,1.63675207 C131.243861,1.16587205 133.459061,2.77867211 133.862261,5.51947222 L133.868021,5.55787222 C134.324981,8.66299234 132.146741,10.6285924 129.137141,11.0711524 L126.895061,11.4009125 L127.486901,15.4261926 L124.535381,15.8605926 L122.561141,2.4431521 Z" id="Fill-3" fill="#000000"></path>
                    <polygon id="Fill-5" fill="#000000" points="141.70407 0.269040011 144.68631 0.207120008 144.91191 11.0512804 151.67031 10.9111204 151.72647 13.6221605 141.98583 13.8247205"></polygon>
                    <path d="M169.192039,8.28984033 L169.196839,8.25144033 C169.453159,5.94072024 167.972359,3.82680015 165.584839,3.56184014 C163.197318,3.29640013 161.331558,4.9999202 161.075238,7.31016029 L161.070918,7.34904029 C160.814118,9.65976038 162.294918,11.7732005 164.681959,12.0386405 C167.069959,12.3036005 168.935719,10.6005604 169.192039,8.28984033 M157.966278,7.04280028 L157.970598,7.00440028 C158.396358,3.17256013 161.767878,0.369840015 165.927079,0.831600033 C170.086279,1.29384005 172.726279,4.72536019 172.300999,8.55720034 L172.296679,8.59560034 C171.870919,12.4274405 168.499399,15.2301606 164.340199,14.7684006 C160.181478,14.3066406 157.540998,10.8746404 157.966278,7.04280028" id="Fill-7" fill="#000000"></path>
                    <path d="M186.209527,11.5704005 C187.614967,11.9400005 188.617687,11.4024005 188.908568,10.2974404 L188.918648,10.2600004 C189.243608,9.02304036 188.549527,8.15952032 187.144087,7.78992031 L184.278007,7.03536028 L183.286807,10.8014404 L186.209527,11.5704005 Z M182.077687,3.67200015 L188.072887,5.24976021 C189.740408,5.68848023 190.909688,6.49680026 191.544728,7.5854403 C192.083288,8.50848034 192.205688,9.64224038 191.880248,10.8787204 L191.870648,10.9161604 C191.313848,13.0334405 189.820568,14.0630406 187.990807,14.2425606 L189.961688,19.7692808 L186.589687,18.8817608 L184.883287,13.9459206 L184.845847,13.9358406 L182.616727,13.3492805 L181.512727,17.5459207 L178.626967,16.7870407 L182.077687,3.67200015 Z" id="Fill-9" fill="#000000"></path>
                    <polygon id="Fill-11" fill="#000000" points="201.629048 9.52056038 211.084088 13.4224805 210.071768 15.8757606 203.356568 13.1047205 202.306808 15.6477606 208.217048 18.0861607 207.204248 20.5399208 201.294968 18.1010407 200.208248 20.7333608 207.013208 23.5413609 206.000408 25.995121 196.456088 22.0562409"></polygon>
                    <polygon id="Fill-13" fill="#000000" points="229.339689 23.3620329 237.781929 29.1354732 236.283849 31.3261932 230.288169 27.2255531 228.734889 29.4959532 234.011049 33.1045933 232.512969 35.2948334 227.236809 31.6861933 225.629769 34.0367534 231.705129 38.1921135 230.207049 40.3823536 221.685129 34.5541934"></polygon>
                    <polygon id="Fill-15" fill="#000000" points="244.147498 34.0263374 246.592138 36.2338574 242.820778 45.6984978 251.853898 40.9868176 254.240458 43.1424977 241.016938 49.603778 239.061417 47.8373779"></polygon>
                    <polygon id="Fill-17" fill="#000000" points="260.074234 49.363586 266.675675 57.1751063 264.648635 58.8882263 259.960474 53.3399061 257.859514 55.1154262 261.985114 59.9975064 259.958554 61.7106265 255.832474 56.8280663 253.657594 58.6659863 258.408634 64.2882266 256.382074 66.0008666 249.717754 58.1149463"></polygon>
                    <polygon id="Fill-19" fill="#000000" points="272.160971 64.5754586 273.631691 66.8996187 269.973131 76.732899 277.028651 72.2688989 278.602571 74.757219 267.144011 82.0066593 265.787531 79.8624992 269.560811 69.7047388 262.27633 74.313219 260.70241 71.8248989"></polygon>
                    <polygon id="Fill-21" fill="#000000" points="281.943275 87.3571715 280.233035 83.6021313 282.736715 82.4621313 287.392715 92.6870917 284.889515 93.8270917 283.179275 90.0720516 273.342155 94.5514118 272.106155 91.8365316"></polygon>
                    <path d="M278.965307,103.053028 L281.505467,104.107588 C280.906907,105.572548 280.676987,106.983268 281.138267,108.463108 C281.501627,109.628068 282.182747,110.186308 282.941147,109.950148 L282.978107,109.938628 C283.699067,109.713988 283.930907,109.154788 283.811387,106.818148 C283.664507,104.002948 283.860827,102.094948 286.431707,101.293828 L286.468667,101.282788 C288.817307,100.550308 290.958588,101.952868 291.782748,104.597188 C292.371228,106.483588 292.280508,108.276868 291.635388,109.918468 L289.029467,109.107748 C289.467228,107.713348 289.596348,106.435108 289.256027,105.344068 C288.916187,104.253028 288.237947,103.835428 287.609627,104.031268 L287.572667,104.042788 C286.721627,104.308228 286.616987,104.949508 286.741307,107.365828 C286.875707,110.205028 286.393787,111.978628 284.137307,112.681828 L284.100347,112.693348 C281.529947,113.494469 279.476027,111.983908 278.605787,109.191268 C277.995227,107.230948 278.062427,105.038788 278.965307,103.053028" id="Fill-23" fill="#000000"></path>
                    <polygon id="Fill-25" fill="#000000" points="298.423596 153.30471 297.824076 163.51431 295.174956 163.35831 295.600716 156.10743 292.854636 155.94615 292.480236 162.32727 289.831596 162.17175 290.205996 155.79063 287.363435 155.62407 286.932395 162.97143 284.283275 162.81591 284.888555 152.50983"></polygon>
                    <polygon id="Fill-27" fill="#000000" points="289.43862 174.977335 296.84694 171.803095 296.17926 175.225495 291.31878 177.179095 295.0863 180.834295 294.43782 184.161655 288.802139 178.445335 281.090939 181.757815 281.758139 178.335415 286.903259 176.239735 282.925499 172.345975 283.573979 169.018615"></polygon>
                    <path d="M283.875947,195.553352 C283.396427,196.965512 283.960427,198.077192 285.060587,198.450632 L285.097067,198.463112 C286.362827,198.892712 287.340107,198.242792 287.819627,196.830632 L288.560267,194.648072 L284.635307,193.316072 L283.875947,195.553352 Z M292.068108,192.689192 L290.287308,197.934152 C289.247627,200.997032 286.803947,202.233512 284.181227,201.343112 L284.144747,201.330632 C281.173067,200.322152 280.417067,197.488232 281.394347,194.608712 L282.122987,192.463112 L278.271467,191.155592 L279.230027,188.331271 L292.068108,192.689192 Z" id="Fill-29" fill="#000000"></path>
                    <polygon id="Fill-31" fill="#000000" points="285.273755 210.726104 283.965275 213.407384 274.215995 208.649624 271.250555 214.725465 268.813595 213.536024 273.087035 204.778904"></polygon>
                    <path d="M265.538459,231.497337 L265.570619,231.518937 C267.506459,232.807257 270.063899,232.461657 271.394939,230.461977 C272.726939,228.461817 272.069339,226.022937 270.133979,224.734137 L270.101819,224.712537 C268.166459,223.424217 265.608539,223.769817 264.277499,225.769497 C262.945978,227.769177 263.603098,230.208537 265.538459,231.497337 M271.798139,222.094617 L271.830299,222.116217 C275.040059,224.252697 275.983259,228.535257 273.663899,232.018617 C271.344539,235.502457 267.084059,236.273337 263.874298,234.136857 L263.842138,234.115257 C260.632378,231.978777 259.689178,227.696217 262.008538,224.212377 C264.328379,220.729017 268.588859,219.958137 271.798139,222.094617" id="Fill-33" fill="#000000"></path>
                    <path d="M254.827978,245.111242 C253.856458,246.191242 253.875178,247.328362 254.724778,248.093002 L254.753578,248.118922 C255.703978,248.974282 256.789738,248.752042 257.761258,247.672042 L259.743658,245.468842 L256.849258,242.864842 L254.827978,245.111242 Z M263.740138,245.052682 L259.594378,249.660682 C258.440938,250.941802 257.187178,251.611402 255.929098,251.678122 C254.862058,251.734282 253.797898,251.323882 252.847498,250.469002 L252.818698,250.442602 C251.191978,248.979082 250.959658,247.181002 251.637898,245.471242 L245.822218,244.694602 L248.154538,242.102602 L253.323178,242.845162 L253.349098,242.816362 L254.891338,241.102762 L251.665738,238.200681 L253.660618,235.982601 L263.740138,245.052682 Z" id="Fill-35" fill="#000000"></path>
                    <polygon id="Fill-37" fill="#000000" points="249.596266 259.764874 241.807786 266.397035 240.086986 264.376235 245.618986 259.665994 243.834826 257.571274 238.967145 261.716074 237.246345 259.695274 242.114026 255.550474 240.267466 253.381834 234.662505 258.154954 232.941705 256.134634 240.804106 249.439114"></polygon>
                    <polygon id="Fill-39" fill="#000000" points="224.655465 278.111243 215.667945 282.995723 214.400745 280.663403 220.783785 277.194923 219.470025 274.778123 213.853064 277.830443 212.585384 275.498603 218.203305 272.445803 216.843465 269.943563 210.374984 273.459083 209.107304 271.126763 218.180265 266.196683"></polygon>
                    <polygon id="Fill-41" fill="#000000" points="208.410008 286.431083 205.330808 287.597963 198.632888 279.923723 198.701528 290.109324 195.694808 291.248844 195.982328 276.537323 198.445688 275.603243"></polygon>
                    <polygon id="Fill-43" fill="#000000" points="187.470487 293.599692 177.500887 295.889292 176.907127 293.302092 183.987607 291.676332 183.372247 288.995051 177.140887 290.425932 176.547127 287.839211 182.778007 286.408331 182.140567 283.632491 174.965527 285.280331 174.371287 282.693131 184.435447 280.382411"></polygon>
                    <polygon id="Fill-45" fill="#000000" points="168.402679 297.366588 165.662359 297.606588 158.602998 289.843548 159.332118 298.161468 156.398358 298.418748 155.214198 284.909147 157.742358 284.687387 165.037879 292.701948 164.284759 284.114267 167.218519 283.856507"></polygon>
                    <g id="Group-49" transform="translate(136.320005, 284.640011)">
                        <mask id="mask-2" fill="white">
                            <use xlink:href="#path-1"></use>
                        </mask>
                        <g id="Clip-48"></g>
                        <polygon id="Fill-47" fill="#000000" mask="url(#mask-2)" points="7.36732829 10.9776484 11.4890885 11.1725284 11.3585285 13.9200486 0.135648005 13.3891685 0.265248011 10.6416484 4.38700817 10.8365284 4.89772819 0.0389280015 7.87804831 0.180048007"></polygon>
                    </g>
                    <path d="M131.091557,285.803435 L128.995397,287.584235 C127.963877,286.383755 126.813317,285.536555 125.286437,285.273035 C124.083557,285.065195 123.276197,285.417035 123.141317,286.199435 L123.134597,286.237835 C123.005957,286.982315 123.398117,287.443115 125.532197,288.401195 C128.104997,289.553196 129.713477,290.597196 129.255077,293.250636 L129.248357,293.289036 C128.829797,295.713036 126.606437,296.979756 123.877157,296.508876 C121.929797,296.172396 120.375077,295.274796 119.207717,293.953356 L121.117157,292.002636 C122.158757,293.027916 123.237317,293.724876 124.362917,293.919276 C125.489477,294.113676 126.170117,293.700396 126.281957,293.051916 L126.288677,293.013516 C126.440837,292.135116 125.917157,291.750636 123.709637,290.759916 C121.121477,289.585836 119.762597,288.348395 120.164357,286.019915 L120.171077,285.981515 C120.629477,283.328555 122.909477,282.189515 125.791877,282.686795 C127.815077,283.036235 129.735557,284.095115 131.091557,285.803435" id="Fill-50" fill="#000000"></path>
                    <polygon id="Fill-52" fill="#000000" points="77.4637471 280.177979 68.6663067 274.961339 70.0194268 272.678459 76.268067 276.383579 77.6711071 274.017659 72.1727069 270.757019 73.5263069 268.474139 79.0247071 271.734779 80.4771872 269.285339 74.1455069 265.530779 75.499107 263.247898 84.3800674 268.513979"></polygon>
                    <polygon id="Fill-54" fill="#000000" points="62.3390425 262.256266 61.7635225 270.295307 59.0280023 268.132907 59.5204824 262.917706 54.5448022 264.589547 51.8851221 262.487146 59.5492824 260.100586 60.1411224 251.728906 62.8766425 253.890826 62.3798425 259.424746 67.6641627 257.674666 70.3238428 259.777066"></polygon>
                    <path d="M46.5881299,247.886266 C45.5508498,246.814426 44.3042898,246.807226 43.4690897,247.615546 L43.4407697,247.641946 C42.4802897,248.571706 42.6118097,249.738106 43.6486097,250.810426 L45.2518098,252.467386 L48.2311699,249.584506 L46.5881299,247.886266 Z M45.3905298,256.483546 L41.5380497,252.501466 C39.2887696,250.176346 39.3070096,247.436506 41.2980496,245.510746 L41.3258896,245.483386 C43.5814097,243.301306 46.4479698,243.924346 48.5628499,246.110746 L50.13869,247.739386 L53.0623701,244.911226 L55.1369302,247.055386 L45.3905298,256.483546 Z" id="Fill-56" fill="#000000"></path>
                    <polygon id="Fill-58" fill="#000000" points="32.4571693 242.20921 30.6672492 239.82217 39.3466096 233.313369 35.2891694 227.904249 37.4592495 226.277049 43.3061297 234.072729"></polygon>
                    <path d="M22.9692009,215.189049 L22.9356009,215.207769 C20.9066408,216.342969 20.0493608,218.777529 21.2224808,220.873209 C22.3960809,222.969369 24.866161,223.495929 26.8951211,222.360249 L26.9287211,222.341049 C28.9576812,221.205849 29.8149612,218.772249 28.6413611,216.676089 C27.4682411,214.579449 24.997681,214.053369 22.9692009,215.189049 M28.4858411,225.043929 L28.4522411,225.062649 C25.088401,226.946169 20.8471208,225.834489 18.8032807,222.183129 C16.7589607,218.531769 18.0141607,214.388409 21.3784808,212.504888 L21.4120809,212.486168 C24.775921,210.602648 29.0172012,211.714808 31.0605612,215.365689 C33.1048813,219.017529 31.8501613,223.160889 28.4858411,225.043929" id="Fill-60" fill="#000000"></path>
                    <path d="M15.7289286,199.433 C15.2119686,198.07508 14.1914886,197.57204 13.1230085,197.9786 L13.0870085,197.99252 C11.8922885,198.44756 11.5937285,199.5146 12.1102085,200.87252 L13.1647685,203.6426 L16.8041287,202.25732 L15.7289286,199.433 Z M11.7094085,207.389 L9.50380838,201.59492 C8.89084835,199.98356 8.86780835,198.56228 9.38332837,197.41268 C9.82060839,196.43732 10.6721284,195.67796 11.8668485,195.2234 L11.9028485,195.20948 C13.9490886,194.43092 15.6550086,195.0458 16.8660487,196.42964 L20.2140488,191.61092 L21.4543689,194.86964 L18.4327687,199.12916 L18.4462087,199.16564 L19.2665288,201.32036 L23.3220489,199.7762 L24.383329,202.56452 L11.7094085,207.389 Z" id="Fill-62" fill="#000000"></path>
                    <polygon id="Fill-64" fill="#000000" points="5.0878082 188.076103 2.76364811 178.114183 5.34844821 177.511303 6.99916828 184.586023 9.67804838 183.961063 8.22556833 177.734983 10.8108484 177.132103 12.2628485 183.358183 15.0367686 182.711143 13.3639685 175.541863 15.9487686 174.938503 18.2950087 184.994983"></polygon>
                    <g id="Group-68" transform="translate(0.000000, 146.880006)">
                        <mask id="mask-4" fill="white">
                            <use xlink:href="#path-3"></use>
                        </mask>
                        <g id="Clip-67"></g>
                        <polygon id="Fill-66" fill="#000000" mask="url(#mask-4)" points="0.224064009 10.6181284 -9.60000038e-05 0.393168016 2.65286411 0.335088013 2.81222411 7.5970083 5.56214422 7.5370083 5.42198422 1.14628805 8.07446432 1.08820804 8.21462433 7.4784483 11.0615044 7.41604829 10.9002244 0.0576480023 13.5536645 -0.000912000036 13.7797445 10.3210084"></polygon>
                    </g>
                    <polygon id="Fill-69" fill="#000000" points="0.25968001 139.270326 0.626880025 135.998165 10.5115204 133.541045 1.41744006 128.953205 1.77648007 125.758325 14.7345606 132.728885 14.4408006 135.346325"></polygon>
                    <polygon id="Fill-71" fill="#000000" points="3.42700814 117.378293 5.93308824 107.462932 8.50540834 108.113332 6.72556827 115.155413 9.39244837 115.829333 10.9586884 109.632052 13.5314885 110.282452 11.9652485 116.479253 14.7257286 117.177173 16.5295687 110.041012 19.1018888 110.691412 16.5722887 120.700853"></polygon>
                    <polygon id="Fill-73" fill="#000000" points="8.76513635 98.6709639 9.80193639 96.1226438 19.9313768 93.3842437 12.1966565 90.2373636 13.3068965 87.5095235 25.868017 92.6210437 24.911377 94.9720838 14.4507366 97.8055239 22.4355369 101.055124 21.3262568 103.782484"></polygon>
                    <polygon id="Fill-75" fill="#000000" points="21.6281289 77.4709951 19.5641288 81.0436352 17.1823687 79.6674752 22.8026889 69.9397948 25.184449 71.3154748 23.1199689 74.888115 32.4790093 80.2948352 30.9871692 82.8781953"></polygon>
                    <path d="M36.1279694,70.7777308 L35.5073294,68.0988507 C37.0466895,67.7330907 38.3273295,67.0990107 39.2618896,65.8634906 C39.9982096,64.8900506 40.0558096,64.0111705 39.4222096,63.5321305 L39.3914896,63.5086105 C38.7890895,63.0530905 38.1996495,63.1903705 36.3694094,64.6471706 C34.1662094,66.4044506 32.5006093,67.3548507 30.3535692,65.7310106 L30.3223692,65.7074906 C28.3606091,64.2238106 28.2550091,61.6668505 29.9254092,59.4578904 C31.1172492,57.8825303 32.6278093,56.9124503 34.3380494,56.4814102 L35.1948494,59.0724503 C33.8062093,59.5279704 32.6921293,60.1663704 32.0028493,61.0778904 C31.3140492,61.9889305 31.3687692,62.7833305 31.8938893,63.1802905 L31.9246093,63.2038105 C32.6354893,63.7414105 33.2177293,63.4529305 35.1098894,61.9462105 C37.3399695,60.1850904 39.0622096,59.5452504 40.9471696,60.9703704 L40.9778896,60.9938904 C43.1249297,62.6177305 43.0918097,65.1660506 41.3278096,67.4983707 C40.0894096,69.1361307 38.2678095,70.3562908 36.1279694,70.7777308" id="Fill-77" fill="#000000"></path>
                    <polygon id="Fill-1" fill="#000000" points="84.6056194 14.7499206 93.9641797 10.6200004 95.0355398 13.0483205 88.3894595 15.9811206 89.4996996 18.4982407 95.3489798 15.9168006 96.4203398 18.3451207 90.5715396 20.9265608 91.7211396 23.5320009 98.4564999 20.5598408 99.52834 22.9881609 90.0809796 27.1569611"></polygon>
                    <polygon id="Fill-2" fill="#000000" points="107.98498 12.8613125 101.78338 7.71523231 105.1333 6.74899227 109.08754 10.1843524 110.62354 5.16547221 113.880341 4.22563217 111.3613 11.8470725 117.824501 17.2000327 114.474581 18.1662727 110.26402 14.5422726 108.61234 19.8573128 105.35506 20.7966728"></polygon>
                </g>
            </g>
        </g>
    </g>
</svg>